<?xml version="1.0" encoding="UTF-8"?>
<svg enable-background="new 0 0 2681 393.2" version="1.1" viewBox="0 0 2681 393.2" xml:space="preserve" xmlns="http://www.w3.org/2000/svg">

	<path d="M0,303.7V8.8h18.5l114.9,217l24.7,47.1h1.3l24.7-47.1l115.3-217h18.5v294.9h-13.2V29.5h-1.3L283.9,66L166.8,286.1H151   L33.9,66L14.5,29.5h-1.3v274.3H0z"/>
	<path d="m366.3 254.4c0-37 32.6-49.7 69.6-54.1l108.2-12.3v-21.1c0-49.3-21.6-70.9-75.3-70.9s-84.1 21.1-84.1 66v2.2h-13.2v-2.6c0-40.9 33.9-77.9 97.7-77.9 62.1 0 87.2 37.4 87.2 80.6v139.5h-11v-62.5h-1.3c-14.5 42.7-56.3 66.9-108.3 66.9-40 0-69.5-19.4-69.5-53.8zm70.8 41.4c55.9 0 107-29.9 107-91.6v-4.8l-103 11.4c-41.4 4.4-61.6 13.6-61.6 42.7 0 27.4 17.1 42.3 57.6 42.3z"/>
	<path d="m603.5 186.2c0-58.5 41.4-102.6 108.7-102.6 46.2 0 84.5 22.9 94.2 61.6h1.3v-57.2h11v201.2c0 68.7-44.5 93.8-103.5 93.8-52.4 0-97.3-28.6-97.3-76.2h13.2c0 44.9 33.9 63.8 84.1 63.8 63.4 0 90.2-21.6 90.2-81.4v-60.3h-1.3c-10.1 33.9-45.3 59.4-96 59.4-64.1 0-104.6-44-104.6-102.1zm105.7 89.8c59.4 0 96.4-34.8 96.4-88.9v-8.8c0-49.7-38.3-82.3-93.3-82.3-52.4 0-95.5 22.9-95.5 90.2-0.1 67.4 42.2 89.8 92.4 89.8z"/>
	<path d="m867.2 254.4c0-37 32.6-49.7 69.6-54.1l108.3-12.3v-21.1c0-49.3-21.6-70.9-75.3-70.9s-84.1 21.1-84.1 66v2.2h-13.2v-2.6c0-40.9 33.9-77.9 97.7-77.9 62.1 0 87.2 37.4 87.2 80.6v139.5h-11v-62.5h-1.3c-14.5 42.7-56.3 66.9-108.3 66.9-40.1 0-69.6-19.4-69.6-53.8zm70.9 41.4c55.9 0 107-29.9 107-91.6v-4.8l-103 11.4c-41.4 4.4-61.6 13.6-61.6 42.7-0.1 27.4 17.1 42.3 57.6 42.3z"/>
	<path d="M1117.7,303.7V8.8h13.2v294.9H1117.7z"/>
	<path d="m1192.5 57.2v-48.4h13.2v48.4h-13.2zm0 246.5v-215.7h13.2v215.7h-13.2z"/>
	<path d="m1329 303.7 135.6-294.9h17.6l135.6 294.9h-14.1l-45.3-97.7h-169.9l-45.3 97.7h-14.2zm65.2-110h158l-63.4-136.5-15.4-34.3h-1.3l-15 34.3-62.9 136.5z"/>
	<path d="M1653,303.7V88h11v68.2h1.3c8.4-37,41.8-72.6,94.2-72.6c61.6,0,92.4,45.8,92.4,98.6v121.5h-13.2V177.8   c0-50.2-25.1-81.9-79.7-81.9c-58.5,0-92.9,40.1-92.9,105.7v102.1H1653z"/>
	<path d="m1899.1 186.2c0-58.5 41.4-102.6 108.7-102.6 46.2 0 84.5 22.9 94.2 61.6h1.3v-57.2h11v201.2c0 68.7-44.5 93.8-103.5 93.8-52.4 0-97.3-28.6-97.3-76.2h13.2c0 44.9 33.9 63.8 84.1 63.8 63.4 0 90.2-21.6 90.2-81.4v-60.3h-1.3c-10.1 33.9-45.3 59.4-96 59.4-64.1 0-104.6-44-104.6-102.1zm105.6 89.8c59.4 0 96.4-34.8 96.4-88.9v-8.8c0-49.7-38.3-82.3-93.3-82.3-52.4 0-95.5 22.9-95.5 90.2 0 67.4 42.2 89.8 92.4 89.8z"/>
	<path d="M2176,303.7V8.8h13.2v294.9H2176z"/>
	<path d="m2237.6 195.9c0-63.8 41.4-112.3 110.1-112.3 59 0 103 36.1 103 98.6 0 7.9-0.9 15-2.2 19.8h-197.7c1.8 56.3 31.7 93.8 96.8 93.8 57.7 0 86.7-23.3 86.7-61.6v-2.2h13.2v2.2c0 44-44.5 74-99.9 74-68.6 0-110-48.5-110-112.3zm13.2-5.3h187.5c0.4-4 0.4-7.9 0.4-12.3 0-52.8-34.8-82.3-91.1-82.3-65.1 0-95.5 37.8-96.8 94.6zm89.4-133.4-57.3-57.2h15.4l53.7 57.2h-11.8z"/>
	<path d="m2485.9 232.9v-0.9h13.2v2.2c0 44.9 26.4 61.6 87.6 61.6 56.3 0 77-14.5 77-45.3 0-28.6-17.2-38.3-58.5-44.9l-55.9-8.8c-37.4-5.7-63-18.9-63-54.6 0-37.9 38.7-58.5 90.2-58.5 57.2 0 97.7 25.5 97.7 75.3v0.9h-13.2v-2.2c0-40.1-21.6-61.6-84.5-61.6-52.8 0-77 13.6-77 45.8 0 27.7 14.5 37.4 54.1 43.6l56.3 8.8c40.1 6.2 66.9 20.2 66.9 54.6 0 40.9-40.1 59.4-90.2 59.4-62.9-0.1-100.7-25.7-100.7-75.4z"/>

</svg>
